<?xml version="1.0" standalone="no"?>
<!DOCTYPE svg PUBLIC "-//W3C//DTD SVG 20010904//EN"
 "http://www.w3.org/TR/2001/REC-SVG-20010904/DTD/svg10.dtd">
<svg version="1.0" xmlns="http://www.w3.org/2000/svg"
 width="30.000000pt" height="30.000000pt" viewBox="0 0 300.000000 300.000000"
 preserveAspectRatio="xMidYMid meet">
<metadata>
Created by potrace 1.10, written by Peter Selinger 2001-2011
</metadata>
<g transform="translate(0.000000,300.000000) scale(0.100000,-0.100000)"
fill="#fff" stroke="none">
<path stroke="#fff" stroke-width="20" d="M490 1815 l0 -885 183 0 182 0 -3 351 c-2 332 -2 350 15 345 10 -3
164 -32 343 -66 179 -33 329 -62 333 -63 4 -1 8 -271 7 -600 l0 -597 207 0
208 0 0 1200 0 1200 -208 0 -208 0 3 -360 3 -360 -40 5 c-22 2 -161 12 -310
20 -148 9 -289 18 -313 21 l-43 5 3 335 3 334 -182 0 -183 0 0 -885z m338 540
c2 -286 5 -322 20 -337 12 -11 45 -18 112 -23 52 -4 102 -7 110 -7 8 0 69 -4
135 -8 276 -21 345 -23 360 -10 13 11 15 64 15 360 l0 348 174 2 c154 1 174
-1 180 -16 4 -9 5 -538 4 -1175 l-3 -1159 -177 0 -178 0 0 580 c0 567 0 580
-20 600 -11 11 -29 20 -39 20 -11 0 -77 11 -148 25 -509 98 -514 99 -530 83
-12 -12 -14 -73 -16 -346 -1 -211 -6 -333 -12 -335 -5 -2 -75 -3 -155 -3
l-145 1 -1 855 c-1 470 1 858 3 863 3 4 73 6 156 5 l152 -3 3 -320z"/>
<path d="M461 740 l-70 -121 71 -125 71 -125 139 3 140 3 69 120 69 121 -68
119 -68 120 -141 3 -141 3 -71 -121z m407 -11 l64 -112 -26 -46 c-14 -25 -43
-76 -64 -114 l-37 -67 -135 2 -135 3 -62 111 -63 111 65 114 64 114 132 -2
132 -2 65 -112z"/>
</g>
</svg>
