<?xml version="1.0" standalone="no"?>
<!DOCTYPE svg PUBLIC "-//W3C//DTD SVG 20010904//EN"
 "http://www.w3.org/TR/2001/REC-SVG-20010904/DTD/svg10.dtd">
<svg version="1.0" xmlns="http://www.w3.org/2000/svg"
 width="30.000000pt" height="30.000000pt" viewBox="0 0 300.000000 300.000000"
 preserveAspectRatio="xMidYMid meet">
<metadata>
Created by potrace 1.10, written by Peter Selinger 2001-2011
</metadata>
<g transform="translate(0.000000,300.000000) scale(0.100000,-0.100000)"
fill="#fff" stroke="none">
<path stroke="#fff" d="M630 2721 c0 -6 -63 -398 -140 -873 -76 -474 -138 -864 -136 -866 6
-5 471 -80 475 -76 5 5 111 653 111 682 0 20 4 23 28 18 15 -3 173 -33 352
-66 179 -33 335 -63 347 -65 14 -3 20 -11 17 -22 -8 -33 -183 -1117 -180
-1120 1 -1 108 -20 239 -41 l236 -38 5 25 c3 14 78 471 166 1016 89 545 174
1065 189 1158 l28 167 -21 5 c-27 5 -453 75 -460 75 -3 0 -6 -9 -6 -20 0 -20
-130 -824 -133 -826 -4 -1 -751 47 -753 49 -1 2 61 387 104 640 10 59 15 107
12 107 -11 0 -433 69 -457 75 -13 3 -23 1 -23 -4z m205 -61 c97 -16 187 -30
199 -30 48 0 48 1 -10 -355 -30 -187 -54 -351 -52 -365 4 -32 40 -50 104 -50
28 0 147 -6 265 -14 423 -29 407 -29 423 -3 9 12 43 193 80 415 35 217 66 396
69 398 2 2 49 -3 103 -11 54 -9 110 -18 124 -20 91 -13 176 -29 183 -35 4 -3
-49 -353 -118 -776 -69 -423 -153 -938 -186 -1144 -34 -206 -62 -376 -64 -378
-1 -2 -43 4 -91 12 -49 8 -109 18 -134 22 -185 28 -185 28 -188 49 -1 11 36
255 83 543 47 287 85 531 85 542 0 11 -10 26 -22 34 -37 23 -726 148 -749 136
-23 -13 -19 8 -79 -370 -28 -173 -53 -316 -54 -318 -2 -2 -97 12 -210 30 -162
26 -206 36 -207 48 0 15 265 1670 267 1670 1 0 82 -13 179 -30z"/>
<path stroke="#fff" d="M353 774 c-46 -58 -83 -109 -83 -113 0 -14 90 -245 99 -254 12 -12
273 -49 281 -40 4 4 44 54 88 110 l82 102 -50 127 c-28 70 -52 129 -54 131 -5
6 -236 43 -261 42 -13 0 -48 -35 -102 -105z m307 60 l46 -6 48 -124 47 -124
-81 -100 c-59 -73 -87 -100 -103 -99 -12 0 -71 8 -130 17 l-109 17 -44 115
c-24 63 -44 120 -44 127 0 7 36 57 79 111 l79 100 84 -14 c45 -7 103 -16 128
-20z"/>
</g>
</svg>
